inDegrees=no
num_controls=7
num_derivatives=13
num_iterations=150
num_multipliers=7
num_parameters=0
num_slacks=7
num_states=26
objective=0.462917
objective_accelerations=0.001656
objective_balance=0.002107
objective_effort=0.003530
objective_height=0.455384
objective_ligament=0.000241
solver_duration=2010.811782
status=Solve_Succeeded
success=true
DataType=double
version=3
OpenSimVersion=4.5
endheader
time	/jointset/ground_pelvis/pelvis_tilt/value	/jointset/ground_pelvis/pelvis_tx/value	/jointset/ground_pelvis/pelvis_ty/value	/jointset/hip_l/hip_flexion_l/value	/jointset/hip_l/hip_adduction_l/value	/jointset/hip_l/hip_rotation_l/value	/jointset/back/lumbar_extension/value	/jointset/patellofemoral_l/patellar_flexion_l/value	/jointset/knee_l/knee_flexion_l/value	/jointset/knee_l/knee_adduction_l/value	/jointset/knee_l/knee_rotation_l/value	/jointset/ankle_l/ankle_angle_l/value	/jointset/subtalar_l/subtalar_angle_l/value	/jointset/ground_pelvis/pelvis_tilt/speed	/jointset/ground_pelvis/pelvis_tx/speed	/jointset/ground_pelvis/pelvis_ty/speed	/jointset/hip_l/hip_flexion_l/speed	/jointset/hip_l/hip_adduction_l/speed	/jointset/hip_l/hip_rotation_l/speed	/jointset/back/lumbar_extension/speed	/jointset/patellofemoral_l/patellar_flexion_l/speed	/jointset/knee_l/knee_flexion_l/speed	/jointset/knee_l/knee_adduction_l/speed	/jointset/knee_l/knee_rotation_l/speed	/jointset/ankle_l/ankle_angle_l/speed	/jointset/subtalar_l/subtalar_angle_l/speed	/forceset/tau_hip_flexion_l	/forceset/tau_hip_adduction_l	/forceset/tau_hip_rotation_l	/forceset/tau_knee_flexion_l	/forceset/tau_ankle_angle_l	/forceset/tau_subtalar_angle_l	/forceset/tau_lumbar_extension	lambda_cid13_p0	lambda_cid13_p1	lambda_cid13_p2	lambda_cid13_p3	lambda_cid13_p4	lambda_cid13_p5	lambda_cid14_p0	/jointset/ground_pelvis/pelvis_tilt/accel	/jointset/ground_pelvis/pelvis_tx/accel	/jointset/ground_pelvis/pelvis_ty/accel	/jointset/hip_l/hip_flexion_l/accel	/jointset/hip_l/hip_adduction_l/accel	/jointset/hip_l/hip_rotation_l/accel	/jointset/back/lumbar_extension/accel	/jointset/patellofemoral_l/patellar_flexion_l/accel	/jointset/knee_l/knee_flexion_l/accel	/jointset/knee_l/knee_adduction_l/accel	/jointset/knee_l/knee_rotation_l/accel	/jointset/ankle_l/ankle_angle_l/accel	/jointset/subtalar_l/subtalar_angle_l/accel	gamma_cid13_p0	gamma_cid13_p1	gamma_cid13_p2	gamma_cid13_p3	gamma_cid13_p4	gamma_cid13_p5	gamma_cid14_p0
0.5	-0.06357848771885165	0.08287154661584555	0.8936981189110872	0.217127242397829	-0.3283445683563612	-0.5172395663623625	-0.19267560132865	0.1025435073194159	0.1025435073194158	-0.174449968508155	-0.1597600850500386	-0.03788587936235622	0.01335212620560179	-0.04437407376495375	0.02687347462552147	-0.006827403286716805	0.0560722854005995	-0.02269396457705838	0.0263337473055992	-0.1255793556658193	0.08562603254597047	0.08562603254597057	-0.0003816957586988151	-0.001436467725715268	0.07226090812494856	0.01503645724055148	-0.01864654321662977	0.02409833979033328	-0.01627448032288211	-0.0928033039370201	0.04659815400199465	-0.01655654206047969	0.06149668175112494	-21.52677295857643	3.874621722034322	7.139212112377256	3.16720126209882	-546.5273262086407	-54.89387127249865	-41.63127418025561	0.02524031151581385	-0.01123794622990145	0.003129153018942991	-0.04767255215557506	0.01910635175784588	-0.04446175781949352	0.2237614366114825	-0.06739131017643624	-0.06739131017643585	-0.0003967361899881904	-0.02010330155700174	-0.04600780294005068	-0.003494909341783373	6.314626121029367e-10	-5.632657815465869e-10	-1.20237856715103e-09	-2.774828713711735e-10	1.047045933695524e-09	1.109741505223485e-09	1.30504775674768e-10
0.51	-0.0640210025917554	0.08313971700136388	0.893630003811841	0.2176856073507499	-0.3285705229084862	-0.5169784826695895	-0.1939199878610165	0.1033963490866987	0.103396349086698	-0.174453765307287	-0.1597754652428418	-0.03716559590698837	0.01350233501152176	-0.04413022209503974	0.02676072927292001	-0.006794922856337547	0.0555965342796161	-0.02249370027931256	0.02588455842028021	-0.1232772755841178	0.08493032114217397	0.08493032114217405	-0.000376590307384036	-0.001633599133723509	0.07179048533129083	0.01500590009583637	-0.01950848409669589	0.02508760060406799	-0.01608847543696823	-0.09176636711931134	0.04504245307501425	-0.01650824344379181	0.06224179902986086	-22.01570450839895	3.923703861345868	7.149149086068149	3.28055776881457	-546.579967494681	-54.68402613680001	-41.64335226063095	0.02375949577316829	-0.01127386458768293	0.003411762998178058	-0.04815191583570704	0.02097356949343997	-0.04491222875691733	0.2365325774475515	-0.07246104864897561	-0.07246104864897676	0.001124979737038438	-0.01862245523185905	-0.04835410285429546	-0.002746480820218119	6.56845799963357e-10	-4.437427576157692e-10	-1.28529368594254e-09	-2.647812950010171e-10	1.1369483265133e-09	1.249180933461038e-09	1.47491389781428e-10
0.52	-0.06446111856775122	0.08340676372639372	0.8935622343718885	0.2182390896877077	-0.3287943773974917	-0.5167218438206433	-0.1951407333358656	0.10424187374131	0.1042418737413086	-0.1744574788931169	-0.1597926376286868	-0.03645017559661221	0.01365225617323782	-0.04389429438335871	0.0266487425278217	-0.006758271427935931	0.05509576220798888	-0.02227395195314717	0.02544477854024996	-0.1208511441623635	0.08416261001166872	0.08416261001166879	-0.000365053098276187	-0.001794906334096699	0.07128827912661015	0.01497892839976753	-0.02037042497676249	0.02607686141780277	-0.01590247055105417	-0.09072943030160276	0.04348675214803375	-0.01645994482710391	0.06298691630859644	-22.50522903947048	3.97279457289952	7.159193495582999	3.396549682716413	-546.6404959776928	-54.47558096762733	-41.65528184499531	0.02365551986921812	-0.01108622472932067	0.003963352622733712	-0.05267674228479148	0.02300315744175712	-0.04257995675760638	0.2485717046220541	-0.08179125551818761	-0.08179125551818761	0.0008896153686253623	-0.01293846002999042	-0.0523644851442942	-0.002777819612528268	6.829505754575897e-10	-3.357519066130962e-10	-1.365442498085939e-09	-2.539357275383033e-10	1.221493712904821e-09	1.383524315436478e-09	1.635752568307855e-10
0.53	-0.06489891577483017	0.08367270176624657	0.8934948526231707	0.2187874376408174	-0.3290159352873705	-0.5164696034421223	-0.1963365935986109	0.1050793780738467	0.1050793780738462	-0.1744610354622133	-0.1598112937747801	-0.03573992047255262	0.01380193677838942	-0.04366607172069718	0.02653978821748219	-0.006717266200602433	0.05456816090287023	-0.02203418868396401	0.02499993490330137	-0.1183002655637899	0.08332672346894136	0.08332672346894282	-0.0003448696316991677	-0.001935056471083023	0.07075847546706718	0.0149586304660328	-0.02119605639042638	0.02701804801886101	-0.01572737719855832	-0.08975773610287918	0.0420231067512335	-0.01641286010377437	0.06370346594650954	-22.96489328227278	4.018318237957129	7.168511198992033	3.488439605094944	-546.6961718027397	-54.2755790467582	-41.66704685298009	0.02226702573169513	-0.01066166762233614	0.00429117822197307	-0.05365184076372607	0.02497878129170025	-0.04594072419222554	0.2614423609082202	-0.08621734206255696	-0.08621734206261138	0.002791113009792713	-0.01436351325132505	-0.0539287740897266	-0.001439907613304021	7.030293987078877e-10	-2.283937615693884e-10	-1.435096422442144e-09	-2.412857897658222e-10	1.301121777677933e-09	1.507282992120444e-09	1.774533642941152e-10
0.54	-0.06533445847802916	0.08393757793630878	0.8934279053408128	0.2193303395776483	-0.3292349923706305	-0.5162219123313767	-0.1975063257906838	0.1059081775432734	0.1059081775432739	-0.1744643485165025	-0.1598313134667872	-0.03503509147863459	0.01395145757873181	-0.04344339360735255	0.02643636856969738	-0.006671378155937741	0.05400655895221863	-0.02177379062937668	0.02453492498520315	-0.1156255300278885	0.08242163738970508	0.08242163738970443	-0.0003163501368200556	-0.002067615516804224	0.07020305309830162	0.01494696743792373	-0.02202168780409077	0.02795923461991932	-0.01555228384606224	-0.08878604190415591	0.04055946135443317	-0.01636577538044479	0.0644200155844223	-23.425234991799	4.063870357661294	7.177927356394322	3.583312521623687	-546.7608881550485	-54.07716451241416	-41.67863712709233	0.02254661000583473	-0.009979292218380738	0.004939916088972474	-0.05947687139138387	0.02713011452258849	-0.04661321298753246	0.2733430920876263	-0.09563116282067023	-0.09563116282067002	0.002556821029043483	-0.01142024177696634	-0.0574882269893567	-0.001050838487397955	7.164412109648958e-10	-1.217356316292165e-10	-1.493138981586988e-09	-2.266395273953006e-10	1.375309401511528e-09	1.619330931035122e-09	1.888910568963078e-10
0.55	-0.06576781233118953	0.08420144460409627	0.8933614394595446	0.2198674753902509	-0.3294513484211717	-0.5159789326921385	-0.198648707054367	0.1067275881934844	0.1067275881934865	-0.1744673408233643	-0.1598525866925088	-0.03433594428892827	0.01410089808201146	-0.04322884401096729	0.0263376471418949	-0.006621085953019805	0.0534155993321244	-0.02149455157976899	0.02406150021990148	-0.112832042911249	0.0814485332947594	0.08144853329475682	-0.0002819514363760976	-0.002182007883955332	0.06962161616933525	0.0149416249433346	-0.02279938167571483	0.02884998804552639	-0.01538681665499267	-0.08787639588415273	0.03916952339024143	-0.01632185823846146	0.06509421618794943	-23.861560538242	4.107467998330688	7.186655768812305	3.66691827991973	-546.8129382199849	-53.88739283930961	-41.69004333301496	0.02068916942348512	-0.009716288675507282	0.005180977254161446	-0.05965603709127818	0.02875125075008325	-0.04763229622974251	0.2851534910864145	-0.09994397551664888	-0.09994397551661882	0.003905115555346888	-0.01069568550859773	-0.05918665738374581	-0.0002020192229945095	7.199668793535016e-10	4.668237044607206e-12	-1.531913258845161e-09	-2.057988178442018e-10	1.441068144051947e-09	1.719988056625932e-09	1.987574939518959e-10
0.5600000000000001	-0.06619906468139251	0.08446434451348288	0.8932954979212776	0.2203985515006979	-0.329664825991103	-0.5157406723381386	-0.1997625930529589	0.1075369090142089	0.1075369090142126	-0.1744699843990211	-0.1598748532321669	-0.03364275451481832	0.01425029994748956	-0.04302309301586793	0.0262430168895195	-0.006566509555652922	0.05279461852111514	-0.02119809450735235	0.02359106793748026	-0.1099264770096199	0.0804036714924085	0.08040367149240824	-0.0002466038958011456	-0.002266278304083044	0.06901156997903007	0.0149392398776125	-0.02357707554733862	0.02974074147113351	-0.01522134946392296	-0.08696674986414946	0.03777958542604976	-0.01627794109647804	0.06576841679147671	-24.29864787817387	4.15111130144509	7.19547710017106	3.75383476828939	-546.8751841429684	-53.69940855565174	-41.70125180188894	0.0207868897486521	-0.009161057132970156	0.005796754979931565	-0.06548110957455267	0.03057371908437884	-0.04601471641036126	0.2957588490855647	-0.1099827043017092	-0.1099827043017092	0.002746589055241691	-0.005395852372286966	-0.06321007925712178	-0.0004593527139918467	7.116291751000246e-10	1.547669921988125e-10	-1.547565597839331e-09	-1.775247716764105e-10	1.496712229040555e-09	1.806976206228102e-09	2.067384243515588e-10
0.5700000000000001	-0.06662831020080592	0.0847263244223759	0.8932301228022913	0.2209232703423081	-0.3298752571661322	-0.5155070791559551	-0.2008468504994344	0.1083354277480124	0.1083354277480132	-0.1744722744114595	-0.1598977915917632	-0.03295579810015092	0.01439969349903218	-0.0428276511792775	0.02615428457907508	-0.006507787960992305	0.05214313178109295	-0.02088562535341902	0.02312969313666095	-0.106905506640466	0.0792875634680603	0.07928756346806054	-0.0002122043278646614	-0.002314531020976038	0.06837545841358153	0.01493984331874329	-0.02432304999983934	0.03058671926915292	-0.01506392225697366	-0.08610720154686355	0.03645956571171648	-0.01623145051974946	0.06641644817847099	-24.71264398197611	4.190554066847612	7.203871318839647	3.822389046253757	-546.9288452838134	-53.52141702497174	-41.71224743817319	0.01867685106328888	-0.008531396806263863	0.006019109440577331	-0.06588506827393331	0.03196102406615244	-0.04587993951511909	0.3081919775822674	-0.1143016637870723	-0.1143016637869955	0.003665571305452396	-0.003510825251865762	-0.06444980541394946	0.0003762591167192296	7.100913040454045e-10	3.047536226094321e-10	-1.580209518173702e-09	-1.496164618292268e-10	1.553076935919314e-09	1.908518160811323e-09	2.178918075712148e-10
0.58	-0.06705565049776364	0.08498745659240327	0.8931653567487978	0.2214412937941064	-0.3300824881475185	-0.515278035937299	-0.201900313072868	0.1091224100391153	0.1091224100391132	-0.1744742446420899	-0.1599210066473093	-0.03227533042318305	0.01454910429830413	-0.04264204852472502	0.02607346911639098	-0.006444696457074526	0.05145554055875205	-0.02055805577877441	0.02268107523194553	-0.1037675024012337	0.07809638295228427	0.07809638295228502	-0.0001826475342253286	-0.002321617494031443	0.0677138224391281	0.0149426894234783	-0.02506902445234014	0.03143269706717237	-0.01490649505002403	-0.08524765322957784	0.03513954599738312	-0.01618495994302089	0.06706447956546525	-25.12748892782362	4.230065817270583	7.212345507048931	3.894532437779479	-546.9939457971718	-53.34543885106662	-41.72301271399326	0.0188190533410529	-0.007577687580902839	0.006670736831363898	-0.07270200603864593	0.03359380322439066	-0.04346333718958137	0.3191656231012566	-0.1249972025872759	-0.1249972025872757	0.001778034195694132	0.002837396395230989	-0.06831496105767196	-1.081999314653205e-05	7.174090297148766e-10	4.54594230098171e-10	-1.634982009555779e-09	-1.221844597484159e-10	1.610380127120129e-09	2.029013907928002e-09	2.331767572541175e-10
